<?xml version="1.0" encoding="iso-8859-1"?>
<!-- Generator: Adobe Illustrator 16.0.0, SVG Export Plug-In . SVG Version: 6.00 Build 0)  -->
<!DOCTYPE svg PUBLIC "-//W3C//DTD SVG 1.1//EN" "http://www.w3.org/Graphics/SVG/1.1/DTD/svg11.dtd">
<svg version="1.1" id="Capa_1" xmlns="http://www.w3.org/2000/svg" xmlns:xlink="http://www.w3.org/1999/xlink" x="0px" y="0px"
	 width="612.185px" height="612.185px" viewBox="0 0 612.185 612.185" style="enable-background:new 0 0 612.185 612.185;"
	 xml:space="preserve">
<g>
	<g>
		<g>
			<path d="M152.896,472.233c0,10.633,8.651,19.279,19.284,19.279h267.829c10.633,0,19.284-8.646,19.284-19.279V180.548
				l-306.395-0.992v292.677H152.896L152.896,472.233z M196.015,239.346h223.22v8.01h-223.22V239.346z M196.015,299.153h223.22v8.011
				h-223.22V299.153z M196.015,358.965h223.22v8.01h-223.22V358.965z M196.015,418.772h223.22v8.011h-223.22V418.772z"/>
			<path d="M440.006,120.671H172.179c-10.633,0-19.284,8.648-19.284,19.281v25.426c0.008-0.006,0.016-0.013,0.025-0.021
				l-0.016,6.188l306.385,0.99v-32.584C459.29,129.321,450.641,120.671,440.006,120.671z"/>
			<path d="M439.897,30.87C397.762,10.386,352.819,0,306.313,0c-56.594,0-112.064,15.665-160.411,45.3
				C96.236,75.742,56.459,119.653,30.871,172.283c-73.78,151.76-10.343,335.25,141.412,409.031
				c42.136,20.484,87.082,30.87,133.589,30.87c56.594,0,112.064-15.665,160.415-45.302c49.666-30.44,89.44-74.353,115.03-126.982
				C655.095,288.141,591.653,104.651,439.897,30.87z M467.301,472.233c0,15.05-12.245,27.291-27.295,27.291H172.179
				c-15.051,0-27.294-12.243-27.294-27.291V139.952c0-15.048,12.244-27.291,27.294-27.291h267.829
				c15.05,0,27.294,12.243,27.294,27.291L467.301,472.233L467.301,472.233z"/>
		</g>
	</g>
</g>
<g>
</g>
<g>
</g>
<g>
</g>
<g>
</g>
<g>
</g>
<g>
</g>
<g>
</g>
<g>
</g>
<g>
</g>
<g>
</g>
<g>
</g>
<g>
</g>
<g>
</g>
<g>
</g>
<g>
</g>
</svg>
